<svg id="Layer_1" data-name="Layer 1" xmlns="http://www.w3.org/2000/svg" xmlns:xlink="http://www.w3.org/1999/xlink" viewBox="0 0 231.06 203.38"><defs><style>.cls-1{fill:none;}.cls-2{clip-path:url(#clip-path);}.cls-3{fill:#fff;}</style><clipPath id="clip-path" transform="translate(5.56 -42.25)"><circle class="cls-1" cx="111" cy="119.13" r="118.5"/></clipPath></defs><title>wisdompetlogo</title><g class="cls-2"><g id="Ad2u60.tif"><path class="cls-3" d="M225.46,159.32q0,41.73,0,83.45c0,2.06-.11,2.87-2.65,2.86q-112.86-.15-225.74,0c-2.47,0-2.68-.72-2.67-2.84.08-20.38,0-40.76,0-61.14a26.06,26.06,0,0,1,14-.76c4.06.8,8.15,1.94,12.38,1.42a132.37,132.37,0,0,1,17-.71c1.16,2.18,3.08,2.31,5.26,2.09a67.91,67.91,0,0,1,11-.37A127.58,127.58,0,0,0,82.66,182c5.09-.83,10.34-1.52,15.59-.67,7.43,1.2,9-.29,8.69-8.11-.13-3.93.84-8.17-1.3-11.64a39,39,0,0,1-4.56-9.87c-.69-2.45-1.9-3.15-4.34-3.12A72.42,72.42,0,0,1,70.45,144c-.38-6.7-1.76-13.75,6.22-17.49A4.3,4.3,0,0,0,78,125.19c1.57-2,2.32-3.69-.65-5.45-1.74-1-4.42-2-3.72-5.12,6.88-4.55,13.8-9,21.59-12,1.17-.44,2.72-1.35,2.45-3-.23-1.4-1.71-1.15-2.83-1.28-.55-.07-1.18,0-1.69-.61-3.06-3.73-7.44-6-11.25-8.63-3.22-2.25-6.55-5.65-11.51-5-2.43.33-6.19-3.9-6.2-6.46,0-3,2.14-4.16,4.51-5.37s4.94-1.08,7.4-.79c7.77.9,14.44-4.84,22.38-2.94A26.72,26.72,0,0,0,92,55.76c-.71-.77-1.61-1.87-.21-2.45,2.08-.88,1.91-2.84,2.7-4.35,1.76-3.39,3.57-6.73,8.19-6.71,4.21,0,7.44,1.88,8.92,6a59.82,59.82,0,0,1,2.74,10.6c.76,4.65,3.18,6.91,8,6.8,1,0,2.73-.14,2.86.23,1.4,3.92,5.1,5.3,7.94,7.62,4.21,3.43,6.24,8.24,8.11,13.11,1.05,2.77,2.66,4,5.79,3.59a139.64,139.64,0,0,1,30.65-.56c7.2.69,14.4,1.8,20.7,5.87.67.91,1.4,1.78,2,2.74,3.9,6.41,3,10.93-2.86,14a119.59,119.59,0,0,1-21.67,16.41c-2,1.23-4.65,1.49-6.2,3.24-3.27,3.69-7.8,4.08-12.08,5.3-3.64,1-8.16,1.1-10.39,4.31-2.36,3.41-5.09,2.74-7.88,2.18-4.56-.91-10.65,1.67-12.62,5.76-.61,1.27-1.2,2.55-1.9,3.77-3.22,5.62-2.35,11.24-.1,16.88.58,4,2.54,6.16,6.87,6.82a9.92,9.92,0,0,0,8.5-2.28,8.53,8.53,0,0,1,4.07-1.78c5-1.1,10.21.11,15.26-1,3.37-.76,6.69-2.18,10.35-1a2.39,2.39,0,0,0,3.28-1.83c.84-4.53,4.23-4.1,7.1-3.11,2.48.86,4,.28,5.86-1.16a18,18,0,0,1,10.11-4.15c6.83-.46,13.61-1.49,20.44-1.85C219.49,158.55,222.67,156.91,225.46,159.32ZM94.86,88.13c-1.31-5.17-3.9-7-7.16-5.56-1.56.67-1.88,1.66-1.65,3.21.31,2,1.77,1.68,2.88,1.32C90.93,86.45,92.66,86.83,94.86,88.13Zm98.58,77.08a3.43,3.43,0,0,0-3.94,1C190.76,166.23,192.06,166.52,193.44,165.21Z" transform="translate(5.56 -42.25)"/><path class="cls-3" d="M197.44,136.21c-1.38,1.31-2.68,1-3.94,1A3.43,3.43,0,0,1,197.44,136.21Z" transform="translate(5.56 -42.25)"/></g></g></svg>